# xmcd
#
# Track frame offsets:
#	150
#	16715
#	35382
#	56317
#	71113
#	94742
#	113226
#	130817
#	151160
#	169536
#
# Disc length: 2437 seconds
#
# Revision: 1
# Processed by: cddbd v1.5.1PL0 Copyright (c) Steve Scherf et al.
# Submitted via: audiograbber 1.82.02
#
DISCID=7209830a
DTITLE=Bruno Lauzi - 10 Belle Canzoni D'amore
DYEAR=2003
DGENRE=Blues
TTITLE0=Dieci Belle Canzoni D'amore
TTITLE1=Il Cielo In Una Stanza
TTITLE2=Aver Paura D'innamorarsi Troppo
TTITLE3=Amore Caro Amore Bello
TTITLE4=Molecole
TTITLE5=Sogni D'oro
TTITLE6=Io Ti Cercherò
TTITLE7=Scrivimi
TTITLE8=Speriamo Che Piova
TTITLE9=Se Tu Sapessi
EXTD=
EXTT0=
EXTT1=
EXTT2=
EXTT3=
EXTT4=
EXTT5=
EXTT6=
EXTT7=
EXTT8=
EXTT9=
PLAYORDER=
